<svg xmlns="http://www.w3.org/2000/svg" viewBox="0 0 64 64" width="64" height="64">
  <defs>
    <linearGradient id="g" x1="0" y1="0" x2="1" y2="1">
      <stop offset="0" stop-color="#4c1d95"/>
      <stop offset="1" stop-color="#6d28d9"/>
    </linearGradient>
  </defs>
  <rect x="0" y="0" width="64" height="64" rx="16" ry="16" fill="url(#g)"/>
  <path fill="#ffffff" d="M38.8 18c-6.8 0-12 5.2-12 12v1.6h-3.6a2.8 2.8 0 0 0 0 5.6H26V46a2.8 2.8 0 0 0 5.6 0V37.2h6.4a2.8 2.8 0 0 0 0-5.6h-6.4v-1.6c0-3.2 2.4-5.6 5.6-5.6 1.2 0 2.4.4 3.6 1.2 1.2.8 3 .4 3.8-.8s.4-3-1-3.6A12 12 0 0 0 38.8 18z"/>
</svg>


